<svg width="84" height="84" viewBox="0 0 84 84" fill="none" xmlns="http://www.w3.org/2000/svg">
<rect width="84" height="84" rx="16" fill="url(#paint0_linear_403_1017)"/>
<path fill-rule="evenodd" clip-rule="evenodd" d="M18.694 17.8337L13.295 21.0724C12.5223 21.5354 11.8618 22.1376 11.3359 22.8346L36.5439 37.9552C36.6763 37.8243 36.8102 37.6979 36.9456 37.576C38.5416 36.132 40.5176 34.574 42.8736 32.902C45.1536 31.382 46.8256 30.052 47.8896 28.912C48.9536 27.772 49.4856 26.366 49.4856 24.694C49.4856 22.642 48.7636 21.046 47.3196 19.906C45.9516 18.766 44.0136 18.196 41.5056 18.196C38.1477 18.196 34.958 19.3361 31.9365 21.6163C31.9973 22.4919 31.5518 23.3814 30.6052 24.0402C29.979 24.475 29.2186 24.7496 28.423 24.865C28.3377 24.959 28.2526 25.054 28.1676 25.15L27.869 24.9194C26.6168 24.9847 25.3346 24.6669 24.3927 23.9694C23.4043 23.2377 23.0094 22.2504 23.2012 21.3145L18.694 17.8337ZM35.4045 39.2409L10.4928 24.2982C10.1377 25.1368 9.94446 26.0494 9.94446 26.9894V57.064C9.94446 59.4883 11.2165 61.734 13.295 62.982L30.1177 73.0719C30.6053 71.7123 31.3993 70.4823 32.4996 69.382C32.9442 68.9374 33.4066 68.541 33.8869 68.1927C33.7847 68.147 33.681 68.0956 33.5762 68.0384C31.8337 67.0887 30.4211 64.9063 30.4211 63.1638C30.4211 61.4224 31.8336 60.7798 33.5762 61.7295C35.3187 62.6791 36.7307 64.8615 36.7307 66.6031C36.7307 66.6554 36.7294 66.7067 36.7269 66.757C37.6939 66.455 38.7168 66.304 39.7956 66.304C40.2603 66.304 40.7137 66.332 41.1555 66.3881V55.93H31.3596V52.396C31.3596 51.0607 31.434 49.805 31.5826 48.6291C30.8737 47.6641 30.4211 46.5368 30.4211 45.5504C30.4211 44.0795 31.4275 43.3924 32.7894 43.7851C32.8433 43.6518 32.8987 43.5201 32.9556 43.39C33.6925 41.7688 34.5088 40.3858 35.4045 39.2409ZM42.8447 66.7561V55.93H47.7756V53.08C47.7756 51.5461 48.03 50.1864 48.5388 49.0006C49.0273 49.8441 50.1369 50.0143 51.4281 49.3108C53.1701 48.3611 54.5826 46.1787 54.5826 44.4372C54.5826 43.8328 54.4127 43.3607 54.118 43.0415C54.8942 42.4532 55.7441 41.8474 56.6676 41.224C59.1756 39.4 61.1896 37.804 62.7096 36.436C64.2296 35.068 65.5216 33.282 66.5856 31.078C67.114 30.0564 67.52 28.9368 67.8035 27.7192L73.5067 24.2982C73.8624 25.1369 74.0556 26.0495 74.0558 26.9894V57.064C74.0558 59.4884 72.7838 61.734 70.7053 62.982L49.9949 75.4037C49.7471 73.0876 48.7414 71.0804 46.9776 69.382C45.759 68.1165 44.3813 67.2412 42.8447 66.7561ZM68.1701 25.53C68.2538 24.7528 68.2956 23.9421 68.2956 23.098C68.2956 21.8252 68.1697 20.5928 67.9179 19.4006L70.7051 21.0724C71.4779 21.5354 72.1378 22.1376 72.6638 22.8346L68.1701 25.53ZM15.962 58.4384C14.2201 57.4887 12.807 55.3063 12.807 53.5636C12.807 51.8212 14.2201 51.1786 15.962 52.1283C17.7045 53.0779 19.1166 55.2604 19.1166 57.003C19.1166 58.7455 17.7046 59.388 15.962 58.4384ZM15.962 40.8248C14.2201 39.8741 12.807 37.6916 12.807 35.95C12.807 34.2076 14.2201 33.5651 15.962 34.5147C17.7045 35.4644 19.1166 37.6468 19.1166 39.3895C19.1166 41.1308 17.7046 41.7745 15.962 40.8248ZM24.7689 54.4317C23.0264 53.482 21.6143 51.2996 21.6143 49.5569C21.6143 47.8143 23.0263 47.1719 24.7689 48.1216C26.5114 49.0713 27.9239 51.2537 27.9239 52.9964C27.9239 54.7377 26.5114 55.3814 24.7689 54.4317ZM48.273 68.4209C48.273 70.1633 49.6851 70.8058 51.4281 69.8562C53.1701 68.9065 54.5826 66.7241 54.5826 64.9815C54.5826 63.24 53.1701 62.5964 51.4281 63.5461C49.6851 64.4968 48.273 66.6784 48.273 68.4209ZM48.4615 58.1476C48.4615 59.8901 49.8741 60.5338 51.6166 59.5841C53.359 58.6334 54.7711 56.4518 54.7711 54.7093C54.7711 52.9669 53.359 52.3244 51.6166 53.274C49.874 54.2237 48.4615 56.4063 48.4615 58.1476ZM63.6066 59.4119C63.6066 61.1544 65.0187 61.797 66.7611 60.8473C68.5036 59.8977 69.9161 57.7152 69.9161 55.9727C69.9161 54.2301 68.5036 53.5876 66.7611 54.5384C65.0185 55.4871 63.6066 57.6695 63.6066 59.4119ZM63.6066 49.14C63.6066 50.8824 65.0187 51.5239 66.7611 50.5753C68.5036 49.6256 69.9161 47.442 69.9161 45.7006C69.9161 43.9581 68.5036 43.3155 66.7611 44.2652C65.0185 45.2149 63.6066 47.3975 63.6066 49.14ZM63.6066 38.8678C63.6066 40.6093 65.0187 41.2517 66.7611 40.3022C68.5036 39.3525 69.9161 37.17 69.9161 35.4284C69.9161 33.686 68.5036 33.0434 66.7611 33.9931C65.0185 34.9428 63.6066 37.1254 63.6066 38.8678Z" fill="#262626"/>
<defs>
<linearGradient id="paint0_linear_403_1017" x1="13.5" y1="4" x2="70" y2="74.5" gradientUnits="userSpaceOnUse">
<stop stop-color="#EADF6A"/>
<stop offset="1" stop-color="#EA9744"/>
</linearGradient>
</defs>
</svg>
